<svg xmlns="http://www.w3.org/2000/svg" width="320" height="320" viewBox="582.7 -1.4 157.5 157.5"><g><path transform="matrix(1,0,0,-1,0,216)" d="M652.9479 159.4043C677.5041 165.0654 687.5816 175.6242 690.7793 198.7109 669.6635 209.3717 648.6985 208.9103 628.9843 199.9984 633.7332 193.9805 633.6082 185.186 629.5003 177.099 632.3786 174.0504 634.0626 170.8013 634.54 167.3515 641.9001 167.2243 647.998 164.5024 652.9479 159.4043" fill="#ed1c24" fill-rule="evenodd"/><path transform="matrix(1,0,0,-1,0,216)" d="M726.5424 121.6899C733.0805 163.1591 713.289 181.0834 701.8841 191.8772L700.8165 182.7848C710.708 173.7346 719.6136 160.4086 720.5919 140.2894 716.762 159.535 707.6608 173.1061 699.6895 176.2662 698.9216 167.8204 684.2265 172.3442 689.2821 155.4327 699.9701 150.4488 708.5628 137.1249 708.7938 121.9844 706.176 135.4042 700.2958 143.9303 692.0742 148.9453 691.5526 139.7137 678.1238 137.8361 686.9078 130.7052 692.7681 122.6231 704.632 120.0946 704.4888 105.1084 704.4412 92.7539 693.1363 84.1975 682.9328 81.949 682.5461 77.2577 681.3099 74.2093 680.9224 71.9206 694.8814 75.9506 717.8346 89.3673 726.5424 121.6899" fill="#ed1c24" fill-rule="evenodd"/><path transform="matrix(1,0,0,-1,0,216)" d="M661.4728 67.9122C661.3787 72.5522 660.011 77.0817 657.7206 80.8206 664.725 79.5521 671.7291 79.8364 678.7329 80.9705 678.5906 77.3181 677.6246 73.6656 675.8816 70.0135Z" fill="#ed1c24" fill-rule="evenodd"/><path transform="matrix(1,0,0,-1,0,216)" d="M633.706 72.7152C635.006 76.5567 635.4071 80.5703 634.4566 84.7222 648.7214 85.6837 657.7206 80.1374 657.2707 68.2126 648.0649 68.3626 643.212 69.7136 633.706 72.7152" fill="#ed1c24" fill-rule="evenodd"/><path transform="matrix(1,0,0,-1,0,216)" d="M611.3426 86.974C612.481 89.5331 613.0556 92.4695 612.9938 95.8294 617.002 94.8779 634.3974 94.1647 630.254 74.6666 621.9992 77.4181 617.6466 82.8711 611.3426 86.974" fill="#ed1c24" fill-rule="evenodd"/><path transform="matrix(1,0,0,-1,0,216)" d="M608.1908 90.4258C601.2618 97.3548 598.1598 104.0596 594.8328 110.988 603.7132 110.5132 612.0683 102.4577 608.1908 90.4258" fill="#ed1c24" fill-rule="evenodd"/><path transform="matrix(1,0,0,-1,0,216)" d="M593.4821 115.0407C591.1067 121.4478 590.0539 128.6963 589.8798 136.5035 603.1545 135.5607 611.1924 126.3728 604.7385 111.5889 600.5027 113.8042 596.7176 115.0265 593.4821 115.0407" fill="#ed1c24" fill-rule="evenodd"/><path transform="matrix(1,0,0,-1,0,216)" d="M608.0409 109.3377C610.5858 114.7411 611.4489 120.2434 610.592 125.8472 615.9455 126.2727 621.0737 125.6474 626.6517 122.8456 626.6704 115.3454 628.0846 107.9317 631.3048 100.6319L627.8528 94.6284C623.1501 99.0312 616.4957 99.3061 612.8433 99.7316 612.0677 104.2095 609.8655 106.359 608.0409 109.3377" fill="#ed1c24" fill-rule="evenodd"/><path transform="matrix(1,0,0,-1,0,216)" d="M613.1812 151.0999C612.8249 144.7373 610.8355 138.8273 606.8772 133.4642L609.0537 129.6369C615.7749 130.2942 621.8195 129.4053 627.1396 126.8603 627.7496 130.6803 629.0059 134.8231 630.8169 139.2426 628.251 147.829 620.5762 150.2691 613.1812 151.0999" fill="#ed1c24" fill-rule="evenodd"/><path transform="matrix(1,0,0,-1,0,216)" d="M629.9912 148.3985C631.1177 147.3041 632.2419 145.766 633.3684 143.6703 635.0522 146.4355 639.2639 145.3334 638.9218 141.7192 634.6783 135.1409 631.9573 128.562 632.3179 121.9825 632.9931 117.7549 634.5692 121.5573 637.2709 121.0068 636.855 128.6521 638.0121 134.6247 640.798 138.8679 639.1012 134.1612 638.5173 127.315 638.6219 118.6055 642.4988 118.8303 642.174 114.6283 648.4524 115.2281 646.0707 122.3065 645.681 128.6376 646.5013 134.5147 646.7919 127.3637 647.9359 121.7293 650.0285 117.7798 653.7311 120.2564 661.9371 112.0011 660.011 123.6339 656.9824 131.3898 651.5334 138.6916 645.3006 145.8471 640.8094 149.7745 641.6371 154.3768 649.2033 157.629 645.2345 161.4569 640.2886 163.2067 634.7191 163.6328 634.2636 157.9442 632.6484 152.8869 629.9912 148.3985" fill="#ed1c24" fill-rule="evenodd"/><path transform="matrix(1,0,0,-1,0,216)" d="M589.9173 140.6687C590.1562 148.5777 592.1552 157.074 595.9959 166.1842 610.9101 162.341 613.0857 149.8056 603.8008 135.7909 599.826 138.9399 595.0928 140.3212 589.9173 140.6687" fill="#ed1c24" fill-rule="evenodd"/><path transform="matrix(1,0,0,-1,0,216)" d="M606.202 182.0937C602.6545 178.1442 599.9683 174.0861 598.0218 169.9364 600.9231 169.014 603.1508 167.9814 604.851 166.8594 607.4969 172.1469 607.7585 177.2067 606.202 182.0937" fill="#ed1c24" fill-rule="evenodd"/><path transform="matrix(1,0,0,-1,0,216)" d="M608.0029 164.4579C610.1909 169.3307 611.3925 174.3446 610.78 179.6173 628.314 178.9308 636.2215 167.2758 626.7645 150.8749 622.777 153.4808 618.1447 154.7977 612.9561 155.0024 612.6117 158.6991 610.7482 161.7627 608.0029 164.4579" fill="#ed1c24" fill-rule="evenodd"/><path transform="matrix(1,0,0,-1,0,216)" d="M625.5635 198.1536C619.1586 194.7144 613.8573 190.3099 609.0537 185.4709L609.8794 183.3695C615.5606 183.426 621.1091 182.488 626.3892 179.5422 629.7548 188.0348 629.2012 194.0635 625.5635 198.1536" fill="#ed1c24" fill-rule="evenodd"/><path transform="matrix(1,0,0,-1,0,216)" d="M630.9295 92.1523C631.7677 93.964 632.9169 95.2421 633.5561 96.6546 635.4193 93.8222 637.5711 91.1333 640.2348 88.7 638.0776 88.6759 635.6628 88.6493 633.1059 88.6252 632.3346 90.0088 631.6991 91.169 630.9295 92.1523" fill="#ed1c24" fill-rule="evenodd"/></g></svg>