<svg xmlns="http://www.w3.org/2000/svg" xmlns:xlink="http://www.w3.org/1999/xlink" xmlns:inkscape="http://www.inkscape.org/namespaces/inkscape" version="1.1" width="792" height="216" viewBox="0 0 792 216">
<g inkscape:groupmode="layer" inkscape:label="Layer 1">
<path transform="matrix(1,0,0,-1,0,216)" d="M17.242 200.7609 54.1922 201.0212 54.4569 149.8972 94.2276 200.935 137.4386 201.1859 83.992 141.2909 98.9858 141.4071 138.3987 75.4957 95.72 74.6323 65.6283 125.5068 54.7138 114.0605 54.4626 75.3313 17.682 74.715Z" fill-rule="evenodd"/>
<path transform="matrix(1,0,0,-1,0,216)" d="M180.2764 75.3471 144.3804 75.0807 184.1437 200.7907 232.1289 201.1975 272.9758 74.893 234.7775 75.0747 227.6036 99.4603 187.78 99.9629Z" fill-rule="evenodd"/>
<path transform="matrix(1,0,0,-1,0,216)" d="M319.7889 75.1623 278.9734 75.0512 283.1505 87.3884 283.1029 200.6776 336.524 201.1388 352.8142 118.7623 371.6218 201.0314 423.303 200.9024 423.705 87.3901 427.3622 74.9146 384.726 74.9923 388.3173 87.3071 388.6367 162.0323 385.4492 162.1514 365.4933 75.3077 335.7794 75.0073 317.7692 161.8551 315.017 162.1692 316.3085 86.5709Z" fill-rule="evenodd"/>
<path transform="matrix(1,0,0,-1,0,216)" d="M434.8976 200.8616 471.8767 200.9169 471.7579 74.7882 434.6277 74.8772Z" fill-rule="evenodd"/>
<path transform="matrix(1,0,0,-1,0,216)" d="M220.7333 126.3725 193.7171 126.9729 206.6247 178.0036Z" fill="#ffffff" fill-rule="evenodd"/>
<path transform="matrix(1,0,0,-1,0,216)" d="M480.1195 200.7609 517.0694 201.0212 517.3345 149.8972 557.1051 200.935 600.3159 201.1859 546.8695 141.2909 561.8633 141.4071 601.276 75.4957 558.5975 74.6323 528.5052 125.5068 517.591 114.0605 517.3404 75.3313 480.5597 74.715Z" fill-rule="evenodd"/>
<path transform="matrix(1,0,0,-1,0,216)" d="M737.7789 200.5611 774.758 200.6164 774.6392 74.488 737.5088 74.5773Z" fill-rule="evenodd"/>
<path transform="matrix(1,0,0,-1,0,216)" d="M652.9479 159.4043C677.5041 165.0654 687.5816 175.6242 690.7793 198.7109 669.6635 209.3717 648.6985 208.9103 628.9843 199.9984 633.7332 193.9805 633.6082 185.186 629.5003 177.099 632.3786 174.0504 634.0626 170.8013 634.54 167.3515 641.9001 167.2243 647.998 164.5024 652.9479 159.4043" fill="#ed1c24" fill-rule="evenodd"/>
<path transform="matrix(1,0,0,-1,0,216)" d="M726.5424 121.6899C733.0805 163.1591 713.289 181.0834 701.8841 191.8772L700.8165 182.7848C710.708 173.7346 719.6136 160.4086 720.5919 140.2894 716.762 159.535 707.6608 173.1061 699.6895 176.2662 698.9216 167.8204 684.2265 172.3442 689.2821 155.4327 699.9701 150.4488 708.5628 137.1249 708.7938 121.9844 706.176 135.4042 700.2958 143.9303 692.0742 148.9453 691.5526 139.7137 678.1238 137.8361 686.9078 130.7052 692.7681 122.6231 704.632 120.0946 704.4888 105.1084 704.4412 92.7539 693.1363 84.1975 682.9328 81.949 682.5461 77.2577 681.3099 74.2093 680.9224 71.9206 694.8814 75.9506 717.8346 89.3673 726.5424 121.6899" fill="#ed1c24" fill-rule="evenodd"/>
<path transform="matrix(1,0,0,-1,0,216)" d="M661.4728 67.9122C661.3787 72.5522 660.011 77.0817 657.7206 80.8206 664.725 79.5521 671.7291 79.8364 678.7329 80.9705 678.5906 77.3181 677.6246 73.6656 675.8816 70.0135Z" fill="#ed1c24" fill-rule="evenodd"/>
<path transform="matrix(1,0,0,-1,0,216)" d="M633.706 72.7152C635.006 76.5567 635.4071 80.5703 634.4566 84.7222 648.7214 85.6837 657.7206 80.1374 657.2707 68.2126 648.0649 68.3626 643.212 69.7136 633.706 72.7152" fill="#ed1c24" fill-rule="evenodd"/>
<path transform="matrix(1,0,0,-1,0,216)" d="M611.3426 86.974C612.481 89.5331 613.0556 92.4695 612.9938 95.8294 617.002 94.8779 634.3974 94.1647 630.254 74.6666 621.9992 77.4181 617.6466 82.8711 611.3426 86.974" fill="#ed1c24" fill-rule="evenodd"/>
<path transform="matrix(1,0,0,-1,0,216)" d="M608.1908 90.4258C601.2618 97.3548 598.1598 104.0596 594.8328 110.988 603.7132 110.5132 612.0683 102.4577 608.1908 90.4258" fill="#ed1c24" fill-rule="evenodd"/>
<path transform="matrix(1,0,0,-1,0,216)" d="M593.4821 115.0407C591.1067 121.4478 590.0539 128.6963 589.8798 136.5035 603.1545 135.5607 611.1924 126.3728 604.7385 111.5889 600.5027 113.8042 596.7176 115.0265 593.4821 115.0407" fill="#ed1c24" fill-rule="evenodd"/>
<path transform="matrix(1,0,0,-1,0,216)" d="M608.0409 109.3377C610.5858 114.7411 611.4489 120.2434 610.592 125.8472 615.9455 126.2727 621.0737 125.6474 626.6517 122.8456 626.6704 115.3454 628.0846 107.9317 631.3048 100.6319L627.8528 94.6284C623.1501 99.0312 616.4957 99.3061 612.8433 99.7316 612.0677 104.2095 609.8655 106.359 608.0409 109.3377" fill="#ed1c24" fill-rule="evenodd"/>
<path transform="matrix(1,0,0,-1,0,216)" d="M613.1812 151.0999C612.8249 144.7373 610.8355 138.8273 606.8772 133.4642L609.0537 129.6369C615.7749 130.2942 621.8195 129.4053 627.1396 126.8603 627.7496 130.6803 629.0059 134.8231 630.8169 139.2426 628.251 147.829 620.5762 150.2691 613.1812 151.0999" fill="#ed1c24" fill-rule="evenodd"/>
<path transform="matrix(1,0,0,-1,0,216)" d="M629.9912 148.3985C631.1177 147.3041 632.2419 145.766 633.3684 143.6703 635.0522 146.4355 639.2639 145.3334 638.9218 141.7192 634.6783 135.1409 631.9573 128.562 632.3179 121.9825 632.9931 117.7549 634.5692 121.5573 637.2709 121.0068 636.855 128.6521 638.0121 134.6247 640.798 138.8679 639.1012 134.1612 638.5173 127.315 638.6219 118.6055 642.4988 118.8303 642.174 114.6283 648.4524 115.2281 646.0707 122.3065 645.681 128.6376 646.5013 134.5147 646.7919 127.3637 647.9359 121.7293 650.0285 117.7798 653.7311 120.2564 661.9371 112.0011 660.011 123.6339 656.9824 131.3898 651.5334 138.6916 645.3006 145.8471 640.8094 149.7745 641.6371 154.3768 649.2033 157.629 645.2345 161.4569 640.2886 163.2067 634.7191 163.6328 634.2636 157.9442 632.6484 152.8869 629.9912 148.3985" fill="#ed1c24" fill-rule="evenodd"/>
<path transform="matrix(1,0,0,-1,0,216)" d="M589.9173 140.6687C590.1562 148.5777 592.1552 157.074 595.9959 166.1842 610.9101 162.341 613.0857 149.8056 603.8008 135.7909 599.826 138.9399 595.0928 140.3212 589.9173 140.6687" fill="#ed1c24" fill-rule="evenodd"/>
<path transform="matrix(1,0,0,-1,0,216)" d="M606.202 182.0937C602.6545 178.1442 599.9683 174.0861 598.0218 169.9364 600.9231 169.014 603.1508 167.9814 604.851 166.8594 607.4969 172.1469 607.7585 177.2067 606.202 182.0937" fill="#ed1c24" fill-rule="evenodd"/>
<path transform="matrix(1,0,0,-1,0,216)" d="M608.0029 164.4579C610.1909 169.3307 611.3925 174.3446 610.78 179.6173 628.314 178.9308 636.2215 167.2758 626.7645 150.8749 622.777 153.4808 618.1447 154.7977 612.9561 155.0024 612.6117 158.6991 610.7482 161.7627 608.0029 164.4579" fill="#ed1c24" fill-rule="evenodd"/>
<path transform="matrix(1,0,0,-1,0,216)" d="M625.5635 198.1536C619.1586 194.7144 613.8573 190.3099 609.0537 185.4709L609.8794 183.3695C615.5606 183.426 621.1091 182.488 626.3892 179.5422 629.7548 188.0348 629.2012 194.0635 625.5635 198.1536" fill="#ed1c24" fill-rule="evenodd"/>
<path transform="matrix(1,0,0,-1,0,216)" d="M630.9295 92.1523C631.7677 93.964 632.9169 95.2421 633.5561 96.6546 635.4193 93.8222 637.5711 91.1333 640.2348 88.7 638.0776 88.6759 635.6628 88.6493 633.1059 88.6252 632.3346 90.0088 631.6991 91.169 630.9295 92.1523" fill="#ed1c24" fill-rule="evenodd"/>
<path transform="matrix(1,0,0,-1,0,216)" d="M130.3639 35.6805C134.9501 35.7327 139.21 35.4538 139.9689 31.1287L147.924 31.3279C146.9959 39.259 138.3457 40.9068 133.1399 40.9337 121.7126 40.9615 117.4978 36.4445 117.606 31.3279 117.6279 18.0329 140.9199 25.7995 140.87 18.8705 139.9734 13.0966 123.5058 13.862 124.5847 20.5963L116.7803 20.6714C116.9328 12.5399 122.5817 9.616 134.2661 9.5647 153.2217 9.6605 152.1629 26.2755 141.1702 28.0259 137.2949 28.8465 131.3935 28.9165 127.0678 29.8128 123.5843 31.9294 125.9433 35.2641 130.3639 35.6805" fill-rule="evenodd"/>
<path transform="matrix(1,0,0,-1,0,216)" d="M239.3294 35.6805C243.9162 35.7327 248.1755 35.4538 248.9346 31.1287L256.8895 31.3279C255.9614 39.259 247.3115 40.9068 242.1054 40.9337 230.6786 40.9615 226.4638 36.4445 226.5715 31.3279 226.5939 18.0329 249.8856 25.7995 249.8355 18.8705 248.9389 13.0966 232.4716 13.862 233.5507 20.5963L225.7464 20.6714C225.8989 12.5399 231.5472 9.616 243.2316 9.5647 262.1871 9.6605 261.1284 26.2755 250.1357 28.0259 246.2604 28.8465 240.359 28.9165 236.0339 29.8128 232.5498 31.9294 234.9088 35.2641 239.3294 35.6805" fill-rule="evenodd"/>
<path transform="matrix(1,0,0,-1,0,216)" d="M513.5034 35.6695C518.0899 35.7216 522.3498 35.4427 523.1089 31.1176L531.0638 31.3169C530.1357 39.2485 521.4858 40.8957 516.2797 40.9226 504.8521 40.9504 500.6373 36.4337 500.7455 31.3169 500.7677 18.0221 524.0597 25.7882 524.0095 18.8595 523.1132 13.085 506.6456 13.8509 507.7247 20.5855L499.9204 20.6603C500.0726 12.5291 505.7212 9.6049 517.4056 9.5536 536.3617 9.6497 535.3024 26.2641 524.31 28.0145 520.435 28.8351 514.533 28.9054 510.2079 29.8015 506.7238 31.9184 509.0831 35.2534 513.5034 35.6695" fill-rule="evenodd"/>
<path transform="matrix(1,0,0,-1,0,216)" d="M171.826 40.0706 179.3307 40.1454 179.4807 20.4834C179.8064 17.5924 181.482 15.52 188.1862 15.5307 191.2995 15.7433 194.5284 16.7686 195.0151 20.634L195.09 39.9954 202.3696 40.1454V21.1586C202.1862 12.1357 193.8974 9.5695 187.3604 9.527 177.5764 9.9938 172.6163 13.0005 171.8881 21.0719Z" fill-rule="evenodd"/>
<path transform="matrix(1,0,0,-1,0,216)" d="M445.9626 39.8455 453.4668 39.9206 453.6173 20.2586C453.943 17.3673 455.6183 15.2952 462.3225 15.3057 465.4361 15.518 468.665 16.5433 469.1517 20.4086L469.2266 39.7706 476.5056 39.9206V20.9339C476.3228 11.9106 468.034 9.3447 461.4968 9.3022 451.7127 9.7688 446.7529 12.7755 446.0247 20.8471Z" fill-rule="evenodd"/>
<path transform="matrix(1,0,0,-1,0,216)" d="M335.7765 40.0706H343.5616L343.3601 10.5778H335.575Z" fill-rule="evenodd"/>
<path transform="matrix(1,0,0,-1,0,216)" d="M554.2988 40.0706H562.0842L561.8826 10.5778H554.0973Z" fill-rule="evenodd"/>
<path transform="matrix(1,0,0,-1,0,216)" d="M280.7167 10.6532 280.8672 40.07 288.1463 39.9954V28.8887L303.3057 28.8136 303.2461 40.0683 310.6602 40.0706 310.7353 10.6532H303.3057V22.8101H288.0711V10.5778Z" fill-rule="evenodd"/>
<path transform="matrix(1,0,0,-1,0,216)" d="M398.3128 10.7277 398.5379 40.1454 424.2033 40.07 424.41 34.1382 405.8923 33.9919 405.8172 28.6637 422.8934 28.5883 422.894 22.7347 405.7424 22.5102V10.5772Z" fill-rule="evenodd"/>
<path transform="matrix(1,0,0,-1,0,216)" d="M644.6341 10.6532 644.7609 39.9954 653.6166 40.2205 669.4512 18.6075 669.2261 39.9954 676.4304 40.07V10.6532L667.425 10.5772 651.6992 32.1905 651.8906 10.6532Z" fill-rule="evenodd"/>
<path transform="matrix(1,0,0,-1,0,216)" d="M692.3027 29.7519H704.4602V20.8213H692.3027Z" fill-rule="evenodd"/>
<path transform="matrix(1,0,0,-1,0,216)" d="M87.9517 29.7519H100.1092V20.8213H87.9517Z" fill-rule="evenodd"/>
<path transform="matrix(1,0,0,-1,0,216)" d="M603.6094 9.5204C592.6014 10.1336 586.1137 16.1031 585.6406 25.1626 585.9258 34.6884 593.4359 40.9297 603.6094 41.063 612.4706 41.0751 621.1213 36.1386 621.7078 25.5501 621.0677 13.6383 611.532 9.6894 603.6094 9.5204" fill-rule="evenodd"/>
<path transform="matrix(1,0,0,-1,0,216)" d="M603.6395 15.3377C597.4362 15.8066 594.1701 19.4927 593.9144 25.2102 593.9283 30.8557 597.1881 34.8763 603.6395 35.2457 608.9247 34.9271 612.6267 32.0562 613.434 25.4548 612.9833 17.8143 608.0321 15.7711 603.6395 15.3377" fill="#ffffff" fill-rule="evenodd"/>
</g>
</svg>
